<?xml version="1.0" encoding="UTF-8" standalone="no"?>
<!-- Created with Inkscape (http://www.inkscape.org/) -->

<svg
   width="180.7065mm"
   height="181.28546mm"
   viewBox="0 0 180.70649 181.28546"
   version="1.1"
   id="svg1"
   xml:space="preserve"
   xmlns:xlink="http://www.w3.org/1999/xlink"
   xmlns="http://www.w3.org/2000/svg"
   xmlns:svg="http://www.w3.org/2000/svg"><defs
     id="defs1"><linearGradient
       id="linearGradient46"><stop
         style="stop-color:#8d00ff;stop-opacity:1;"
         offset="0"
         id="stop47" /><stop
         style="stop-color:#ee36ff;stop-opacity:1;"
         offset="0.07459985"
         id="stop1" /><stop
         style="stop-color:#05f29b;stop-opacity:1;"
         offset="0.32164672"
         id="stop2" /><stop
         style="stop-color:#8fff00;stop-opacity:1;"
         offset="0.46717492"
         id="stop3" /><stop
         style="stop-color:#fff500;stop-opacity:1;"
         offset="0.62229043"
         id="stop5" /><stop
         style="stop-color:#ff651a;stop-opacity:1;"
         offset="1"
         id="stop48" /></linearGradient><linearGradient
       id="swatch27"><stop
         style="stop-color:#000000;stop-opacity:1;"
         offset="0"
         id="stop27" /></linearGradient><linearGradient
       id="swatch26"><stop
         style="stop-color:#000000;stop-opacity:1;"
         offset="0"
         id="stop26" /></linearGradient><linearGradient
       id="swatch4"><stop
         style="stop-color:#ffffff;stop-opacity:1;"
         offset="0"
         id="stop4" /></linearGradient><linearGradient
       xlink:href="#linearGradient46"
       id="linearGradient48"
       x1="106.50357"
       y1="172.2355"
       x2="143.62613"
       y2="60.890289"
       gradientUnits="userSpaceOnUse"
       spreadMethod="pad"
       gradientTransform="translate(-2.0011401,10.222248)" /></defs><path
     style="display:inline;opacity:1;fill:none;fill-opacity:1;stroke:url(#linearGradient48);stroke-width:17;stroke-linecap:square;stroke-linejoin:miter;stroke-dasharray:none;paint-order:markers fill stroke"
     d="m 89.017222,43.353977 c 0,0 -49.343742,13.993446 -47.4777,68.709323 1.386201,40.64606 30.088983,52.36109 63.408898,52.64189 34.56216,0.29127 59.25147,-8.88657 59.44717,-29.43066 0.17877,-18.76577 -31.96397,-59.550683 -63.00743,-59.550683 -23.358168,0 -35.82891,15.923188 -34.731226,28.206673 0.974177,13.02746 14.741715,38.13054 38.220626,38.39893 22.89663,0.53701 29.43736,-10.15407 26.00821,-21.10989 -3.62572,-9.82835 -17.28611,-18.61527 -24.61861,-19.23864 -5.86252,-0.51925 -10.695825,1.81757 -10.695825,1.81757"
     id="path3"
     transform="matrix(1.291621,0,0,1.291621,-42.610479,-42.439282)" /></svg>
