<?xml version="1.0" encoding="UTF-8" standalone="no"?>
<!-- Created with Inkscape (http://www.inkscape.org/) -->

<svg
   width="180.7065mm"
   height="181.28546mm"
   viewBox="0 0 180.70649 181.28546"
   version="1.1"
   id="svg1"
   xml:space="preserve"
   xmlns="http://www.w3.org/2000/svg"
   xmlns:svg="http://www.w3.org/2000/svg"><path
     style="display:inline;opacity:1;fill:none;fill-opacity:1;stroke:currentColor;stroke-width:17;stroke-linecap:square;stroke-linejoin:miter;stroke-dasharray:none;stroke-opacity:1;paint-order:markers fill stroke"
     d="m 89.017222,43.353977 c 0,0 -49.343742,13.993446 -47.4777,68.709323 1.386201,40.64606 30.088983,52.36109 63.408898,52.64189 34.56216,0.29127 59.25147,-8.88657 59.44717,-29.43066 0.17877,-18.76577 -31.96397,-59.550683 -63.00743,-59.550683 -23.358168,0 -35.82891,15.923188 -34.731226,28.206673 0.974177,13.02746 14.741715,38.13054 38.220626,38.39893 22.89663,0.53701 29.43736,-10.15407 26.00821,-21.10989 -3.62572,-9.82835 -17.28611,-18.61527 -24.61861,-19.23864 -5.86252,-0.51925 -10.695825,1.81757 -10.695825,1.81757"
     id="path3"
     transform="matrix(1.291621,0,0,1.291621,-42.610479,-42.439282)" /></svg>
